<svg width="181" height="49" viewBox="0 0 181 49" fill="none" xmlns="http://www.w3.org/2000/svg">
<path d="M0 9.67924C0 4.33355 4.33355 0 9.67925 0H38C43.3457 0 47.6792 4.33355 47.6792 9.67925V38.717C47.6792 44.0627 43.3457 48.3962 38 48.3962H9.67925C4.33355 48.3962 0 44.0627 0 38.717V9.67924Z" fill="white"/>
<path fill-rule="evenodd" clip-rule="evenodd" d="M21.006 13.4366L14.1021 20.3069C14.0611 20.3476 14.052 20.3776 14.0486 20.3974C14.0439 20.4241 14.046 20.4616 14.0628 20.5024C14.0796 20.5431 14.1046 20.5712 14.1267 20.5868C14.1432 20.5984 14.1708 20.6132 14.2285 20.6132L35.132 20.6132V23.1227L14.2285 23.1227C11.83 23.1227 10.6318 20.22 12.3319 18.5282L19.2359 11.6578L21.006 13.4366ZM33.8091 27.4245L12.9056 27.4245L12.9056 24.9151L33.8091 24.9151C36.2076 24.9151 37.4058 27.8177 35.7057 29.5096L28.8017 36.38L27.0316 34.6012L33.9355 27.7308C33.9765 27.6901 33.9856 27.6601 33.989 27.6403C33.9937 27.6136 33.9916 27.5762 33.9748 27.5354C33.958 27.4946 33.933 27.4666 33.9109 27.451C33.8944 27.4394 33.8668 27.4245 33.8091 27.4245Z" fill="black"/>
<path d="M77.1919 21.4638L79.4351 18.8186C77.5548 17.1984 75.6415 16.7025 73.1014 16.7025C70.1325 16.7025 66.24 17.9589 66.24 21.7614C66.24 25.4646 69.9346 26.5558 72.9695 26.8203C75.3116 26.9525 76.2023 27.5808 76.2023 28.6719C76.2023 29.8292 74.8828 30.4574 73.3983 30.4574C71.551 30.4574 69.2419 29.8292 67.6585 28.1759L65.6792 31.0526C68.0873 33.5324 70.5944 33.9623 73.2004 33.9623C77.8187 33.9623 80.1938 31.4824 80.1938 28.6058C80.1938 24.3404 76.3012 23.5799 73.2334 23.4146C71.2211 23.2823 70.1985 22.6872 70.1985 21.6291C70.1985 20.6041 71.2211 20.0089 73.1674 20.0089C74.7178 20.0089 76.0373 20.4057 77.1919 21.4638Z" fill="white"/>
<path d="M87.0575 12.5363L83.033 12.9661V17.2315H79.9982V20.7033H83.033V27.8784C83.033 31.8461 85.1772 33.83 88.542 33.83C89.9275 33.83 90.9501 33.6647 92.2036 33.1357L91.082 29.6969C90.4553 29.9945 89.7625 30.1929 89.1358 30.1929C87.8492 30.1929 87.0245 29.4324 87.0245 27.8784V20.7033H91.5439V17.2315H87.0575V12.5363Z" fill="white"/>
<path d="M105.598 17.1323L105.466 19.3807C104.542 17.7605 102.497 16.7355 100.287 16.7355C95.5367 16.7355 91.809 19.5791 91.809 25.2662C91.809 30.9864 95.3387 33.9292 100.188 33.9292C102.035 33.9292 104.509 32.9703 105.466 31.0526L105.664 33.4332H109.457V17.1323H105.598ZM100.65 20.3396C103.817 20.3396 105.4 22.8194 105.4 25.2662C105.4 27.7461 103.817 30.226 100.65 30.226C97.9777 30.226 95.8335 28.3743 95.8335 25.2662C95.8335 22.1581 97.9777 20.3396 100.65 20.3396Z" fill="white"/>
<path d="M128.349 10.3209H124.325V19.3476C123.335 17.6283 120.696 16.7355 118.981 16.7355C114.231 16.7355 110.701 19.6452 110.701 25.2662C110.701 30.6227 114.33 33.8961 119.08 33.8961C121.059 33.8961 123.038 33.301 124.325 31.1848L124.589 33.4332H128.349V10.3209ZM119.344 20.5049C121.884 20.5049 124.061 22.4557 124.061 25.2662C124.061 28.2421 121.884 30.0937 119.344 30.0937C116.771 30.0937 114.725 28.1429 114.725 25.2662C114.725 22.3235 116.804 20.5049 119.344 20.5049Z" fill="white"/>
<path d="M130.187 12.5363C130.187 14.1234 131.374 14.8839 132.562 14.8839C133.749 14.8839 134.937 14.1234 134.937 12.5363C134.937 10.9822 133.749 10.1887 132.562 10.1887C131.374 10.1887 130.187 10.9822 130.187 12.5363ZM134.574 17.0662H130.549V33.4332H134.574V17.0662Z" fill="white"/>
<path d="M140.542 17.1323H136.517V25.8945C136.517 30.9203 139.387 33.8961 143.247 33.8961C145.523 33.8961 147.073 33.1357 148.756 31.4494L149.019 33.4994H152.615V17.1323H148.624V25.663C148.624 28.1429 146.974 30.226 144.467 30.226C141.894 30.226 140.542 28.3413 140.542 25.8614V17.1323Z" fill="white"/>
<path d="M165.655 33.4332H169.68V24.5719C169.68 22.4227 171.032 20.538 173.209 20.538C175.387 20.538 176.277 22.3565 176.277 24.5057V33.4332H180.302V24.5057C180.302 19.5791 178.059 16.7686 173.407 16.7686C171.296 16.7686 169.416 17.3968 167.964 19.7444C167.041 17.496 165.128 16.7025 163.148 16.7025C161.598 16.7025 159.751 17.2646 158.86 18.9509L158.563 17.1323H154.835V33.4332H158.86V24.5719C158.86 22.4227 160.113 20.4718 162.324 20.4718C164.534 20.4718 165.655 22.4227 165.655 24.5719V33.4332Z" fill="white"/>
</svg>
